<svg width="32" height="20" viewBox="0 0 32 20" fill="none" xmlns="http://www.w3.org/2000/svg">
<path fill-rule="evenodd" clip-rule="evenodd" d="M27.9695 8.21782V4.75248H25.4987V8.21782H21.9407V10.6931H25.4987V14.2574H27.9695V10.6931H31.4286V8.21782H27.9695ZM9.98203 8.0198V11.9802C9.98203 11.9802 13.8171 11.975 15.3787 11.975C14.533 14.5425 13.2182 15.9406 9.98203 15.9406C6.70704 15.9406 4.15094 13.2809 4.15094 10C4.15094 6.71911 6.70704 4.05941 9.98203 4.05941C11.7136 4.05941 12.8319 4.66911 13.8576 5.51891C14.6787 4.69634 14.6101 4.57911 16.6991 2.60277C14.9258 0.985743 12.5689 0 9.98203 0C4.46908 0 0 4.47713 0 10C0 15.5228 4.46908 20 9.98203 20C18.2223 20 20.2364 12.8119 19.5687 8.0198C17.618 8.0198 9.98203 8.0198 9.98203 8.0198Z" fill="white"/>
</svg>
