<svg width="15" height="20" viewBox="0 0 15 20" fill="none" xmlns="http://www.w3.org/2000/svg">
<path fill-rule="evenodd" clip-rule="evenodd" d="M13.9788 14.4288C13.9788 14.5717 14.047 14.7145 14.1493 14.7503C15.5188 15.2888 15.1714 17.5003 13.5697 17.5H10.1944C10.0239 18.8928 8.86475 20 7.501 20C6.13726 20 4.97807 18.8928 4.8076 17.5H1.43232C-0.189519 17.5 -0.503863 15.2835 0.852726 14.7499C0.955008 14.7145 1.0232 14.5713 1.0232 14.4288V8.92873C1.0232 7.07156 1.73916 5.32152 3.00063 4.03579C3.95526 3.1072 5.11444 2.46433 6.37591 2.25004C6.23954 2.00004 6.13726 1.71432 6.13726 1.4286C6.13726 0.642869 6.75094 0 7.501 0C8.25107 0 8.86475 0.642869 8.86475 1.4286C8.86475 1.75003 8.79657 2.00004 8.6261 2.25004C11.6263 2.82148 13.9788 5.67867 13.9788 9.07159V14.4288ZM8.18288 1.4286C8.18288 1.03573 7.87604 0.714298 7.501 0.714298C7.12597 0.714298 6.81913 1.03573 6.81913 1.4286C6.81913 1.82146 7.12597 2.1429 7.501 2.1429C7.87604 2.1429 8.18288 1.82146 8.18288 1.4286ZM7.501 19.2861C6.47819 19.2861 5.65994 18.5003 5.48947 17.5003H9.51254C9.34207 18.5003 8.52382 19.2861 7.501 19.2861ZM1.43232 16.786H13.5697C14.42 16.786 14.5761 15.6553 13.9106 15.3928C13.5356 15.2503 13.2969 14.8571 13.2969 14.4288V9.07159C13.2969 5.73939 10.7372 2.85719 7.501 2.85719C6.00088 2.85719 4.56894 3.46435 3.47794 4.57151C2.31876 5.71439 1.70507 7.25013 1.70507 8.92873V14.4288C1.70507 14.8574 1.46641 15.2503 1.09138 15.3931C0.346775 15.8392 0.712942 16.786 1.43232 16.786Z" fill="#2C3E51"/>
</svg>
