<svg width="22" height="22" viewBox="0 0 22 22" fill="none" xmlns="http://www.w3.org/2000/svg">
<path fill-rule="evenodd" clip-rule="evenodd" d="M20.6369 18.9113L16.5145 14.8444C17.6742 13.3891 18.372 11.5582 18.372 9.56842C18.372 4.84385 14.4756 1 9.68658 1C4.89644 1 1 4.84385 1 9.56842C1 14.2919 4.89644 18.1358 9.68658 18.1358C11.563 18.1358 13.2981 17.5381 14.7205 16.5364L18.8818 20.6422C19.1244 20.8811 19.4416 21 19.7599 21C20.0771 21 20.3943 20.8811 20.6369 20.6422C21.121 20.1645 21.121 19.3901 20.6369 18.9113ZM3.48077 9.56842C3.48077 6.19388 6.26537 3.44857 9.68658 3.44857C13.1078 3.44857 15.8902 6.19388 15.8902 9.56842C15.8902 12.943 13.1078 15.6872 9.68658 15.6872C6.26537 15.6872 3.48077 12.943 3.48077 9.56842Z" fill="#2C3E51"/>
<path d="M16.5145 14.8444L15.8302 14.2991L15.3398 14.9145L15.9 15.4673L16.5145 14.8444ZM14.7205 16.5364L15.335 15.9135L14.8145 15.3999L14.2166 15.821L14.7205 16.5364ZM18.8818 20.6422L18.2672 21.2651L18.2679 21.2658L18.8818 20.6422ZM20.6369 20.6422L21.2508 21.2658L21.2515 21.2651L20.6369 20.6422ZM21.2514 18.2884L17.129 14.2215L15.9 15.4673L20.0224 19.5342L21.2514 18.2884ZM17.1988 15.3897C18.4752 13.788 19.247 11.767 19.247 9.56842H17.497C17.497 11.3494 16.8733 12.9902 15.8302 14.2991L17.1988 15.3897ZM19.247 9.56842C19.247 4.34944 14.9476 0.125 9.68658 0.125V1.875C14.0036 1.875 17.497 5.33826 17.497 9.56842H19.247ZM9.68658 0.125C4.4245 0.125 0.125 4.34937 0.125 9.56842H1.875C1.875 5.33833 5.36838 1.875 9.68658 1.875V0.125ZM0.125 9.56842C0.125 14.7865 4.42457 19.0108 9.68658 19.0108V17.2608C5.36831 17.2608 1.875 13.7974 1.875 9.56842H0.125ZM9.68658 19.0108C11.7519 19.0108 13.6616 18.3523 15.2243 17.2518L14.2166 15.821C12.9346 16.7239 11.3741 17.2608 9.68658 17.2608V19.0108ZM14.1059 17.1592L18.2672 21.2651L19.4963 20.0194L15.335 15.9135L14.1059 17.1592ZM18.2679 21.2658C18.6825 21.6739 19.2238 21.875 19.7599 21.875V20.125C19.6594 20.125 19.5663 20.0883 19.4956 20.0187L18.2679 21.2658ZM19.7599 21.875C20.2953 21.875 20.8364 21.6737 21.2508 21.2658L20.023 20.0187C19.9521 20.0885 19.8589 20.125 19.7599 20.125V21.875ZM21.2515 21.2651C22.0832 20.4443 22.0822 19.11 21.2522 18.2891L20.0216 19.5334C20.1598 19.6701 20.1588 19.8847 20.0223 20.0194L21.2515 21.2651ZM4.35577 9.56842C4.35577 6.68866 6.737 4.32357 9.68658 4.32357V2.57357C5.79373 2.57357 2.60577 5.69909 2.60577 9.56842H4.35577ZM9.68658 4.32357C12.6357 4.32357 15.0152 6.68825 15.0152 9.56842H16.7652C16.7652 5.6995 13.5798 2.57357 9.68658 2.57357V4.32357ZM15.0152 9.56842C15.0152 12.4484 12.6359 14.8122 9.68658 14.8122V16.5622C13.5796 16.5622 16.7652 13.4375 16.7652 9.56842H15.0152ZM9.68658 14.8122C6.73681 14.8122 4.35577 12.448 4.35577 9.56842H2.60577C2.60577 13.4379 5.79393 16.5622 9.68658 16.5622V14.8122Z" fill="white"/>
</svg>
