<svg width="21" height="20" viewBox="0 0 21 20" fill="none" xmlns="http://www.w3.org/2000/svg">
<path fill-rule="evenodd" clip-rule="evenodd" d="M5.10027 3.39473C6.4853 0.248234 9.42129 0.00333786 10.2876 0.00333786C10.2987 0.00333786 10.3637 0.00275803 10.4395 0.00208092C10.5455 0.00113487 10.6725 0 10.703 0C11.5717 0 14.5139 0.244896 15.8997 3.39306C16.3658 4.45233 16.2542 6.25211 16.1641 7.6977L16.1604 7.75903C16.1575 7.80601 16.1547 7.85239 16.1519 7.89824C16.1453 8.0063 16.139 8.11138 16.1332 8.21419C16.1982 8.25048 16.3119 8.29513 16.486 8.30305C16.7483 8.29137 17.0526 8.20376 17.391 8.04314C17.5351 7.97472 17.6891 7.96053 17.7932 7.96053C17.9452 7.96053 18.1004 7.99057 18.2321 8.04606C18.6208 8.18665 18.8654 8.47035 18.8715 8.78867C18.879 9.19377 18.522 9.54338 17.8101 9.82832C17.7232 9.86295 17.6178 9.89716 17.5054 9.93346C17.1036 10.0624 16.4963 10.2576 16.3316 10.651C16.2464 10.855 16.2802 11.117 16.4424 11.4516C16.4955 11.5776 17.7801 14.5464 20.6354 15.0233C20.8548 15.06 21.0117 15.2577 20.9993 15.483C20.9956 15.5506 20.9796 15.6178 20.9524 15.6824C20.7383 16.1877 19.835 16.559 18.1893 16.8176C18.1352 16.8919 18.079 17.1516 18.044 17.3139L18.0427 17.3195C18.0077 17.4822 17.9723 17.6428 17.9225 17.8135C17.8542 18.0509 17.6817 18.1819 17.4128 18.1819C17.2963 18.1819 17.137 18.1618 16.9385 18.1222C16.6223 18.0596 16.2678 18.002 15.8194 18.002C15.5588 18.002 15.2887 18.025 15.017 18.0705C14.4866 18.1601 14.0359 18.4827 13.5129 18.8572L13.5122 18.8577C12.7649 19.3934 11.9176 20 10.6297 20C10.5721 20 10.5177 19.9983 10.4761 19.9962C10.4407 19.9992 10.4053 20 10.3699 20C9.08244 20 8.23512 19.3934 7.48702 18.8573L7.48581 18.8564C6.96426 18.483 6.5133 18.1601 5.983 18.0705C5.71126 18.025 5.44117 18.002 5.18055 18.002C4.71078 18.002 4.33529 18.0763 4.06108 18.1305C3.87869 18.1668 3.72059 18.1981 3.58678 18.1981C3.25575 18.1981 3.12689 17.9937 3.07748 17.8226C3.02684 17.6483 2.99143 17.4835 2.95726 17.3233L2.95681 17.3212C2.92177 17.1587 2.8648 16.8945 2.80986 16.8197C1.16462 16.561 0.261301 16.1889 0.0467943 15.6816C0.0200324 15.6169 0.00438696 15.5506 0.000681461 15.4834C-0.0116702 15.2586 0.145196 15.06 0.364644 15.0233C3.2187 14.5472 4.50409 11.578 4.56709 11.4304C4.71943 11.1175 4.7536 10.855 4.66837 10.651C4.50337 10.2579 3.89671 10.0626 3.49487 9.93327L3.49414 9.93304C3.38256 9.89758 3.27716 9.86378 3.18947 9.82832C2.21698 9.43908 2.08152 8.99184 2.13916 8.6852C2.21863 8.25966 2.73122 7.97388 3.15982 7.97388C3.28334 7.97388 3.39533 7.99725 3.49249 8.04314C3.85852 8.21711 4.18336 8.30472 4.45839 8.30472C4.66425 8.30472 4.79518 8.25466 4.86682 8.21461C4.85735 8.04356 4.84624 7.86666 4.83553 7.69645C4.74578 6.25169 4.6342 4.45358 5.10027 3.39473ZM15.7829 7.68868C15.8699 6.28947 15.9781 4.54827 15.5549 3.58734C14.2697 0.666933 11.5421 0.45138 10.7029 0.451797C10.7029 0.451797 10.3546 0.455139 10.3348 0.455139C9.53348 0.455139 6.81956 0.679464 5.53927 3.58901C5.11616 4.55014 5.22423 6.28952 5.31118 7.68898L5.31132 7.6912C5.31348 7.72642 5.31564 7.76145 5.31779 7.7963C5.32917 7.98096 5.34023 8.16037 5.34924 8.33327L5.35419 8.42099L5.29607 8.48658C5.27092 8.5154 5.03267 8.7673 4.49846 8.7673C4.15881 8.7673 3.77093 8.66495 3.34636 8.4636C3.30844 8.44522 3.25691 8.43603 3.19838 8.43603C2.93705 8.43603 2.63738 8.61399 2.60481 8.78902C2.57596 8.94107 2.76681 9.1913 3.3884 9.44027C3.46013 9.4691 3.55493 9.49959 3.66458 9.53468L3.66576 9.53506C4.14474 9.68921 4.86675 9.92157 5.10975 10.5022C5.24702 10.8301 5.20951 11.2161 4.99846 11.6505C4.91148 11.8565 3.54545 14.9753 0.483218 15.5397C0.535567 15.6637 0.866564 16.094 2.92798 16.4165C3.24991 16.467 3.32946 16.8355 3.42138 17.2616C3.45394 17.4136 3.48816 17.5715 3.53432 17.7307C3.54999 17.7854 3.55164 17.7896 3.62583 17.7896C3.71734 17.7896 3.85625 17.7625 4.01701 17.7303C4.30967 17.6722 4.70992 17.5933 5.22146 17.5933C5.5067 17.5933 5.80101 17.6188 6.09615 17.668C6.7264 17.7746 7.23959 18.1422 7.78287 18.5315C8.51205 19.0541 9.26638 19.5942 10.4168 19.5942C10.4461 19.5942 10.4745 19.593 10.5285 19.5901C10.578 19.5926 10.6271 19.5942 10.6769 19.5942C11.8274 19.5942 12.5817 19.0541 13.3109 18.5311L13.312 18.5303C13.8549 18.1417 14.3678 17.7745 14.998 17.668C15.2932 17.6188 15.5875 17.5933 15.8727 17.5933C16.3843 17.5933 16.7845 17.6643 17.0767 17.7224C17.2375 17.7541 17.3768 17.7733 17.4922 17.7733C17.5434 17.7733 17.5458 17.7704 17.5598 17.7224C17.606 17.5632 17.6402 17.4095 17.6728 17.2574L17.6731 17.2562C17.7649 16.8306 17.8438 16.4649 18.1662 16.4144C20.2272 16.0923 20.5586 15.6629 20.6233 15.4883C17.5483 14.9749 16.1827 11.8556 16.0957 11.6505C15.8843 11.2161 15.8472 10.8297 15.984 10.5017C16.2273 9.9218 16.9489 9.68939 17.4274 9.53524L17.4292 9.53468C17.5388 9.49959 17.6336 9.4691 17.7058 9.44027C18.4411 9.14577 18.4939 8.89011 18.4927 8.81868C18.4902 8.69294 18.3434 8.55383 18.1237 8.4753C18.0417 8.44021 17.9424 8.42266 17.8488 8.42266C17.7668 8.42266 17.6889 8.43603 17.6312 8.4636C17.235 8.65158 16.8706 8.75309 16.531 8.76562C16.0417 8.74641 15.8216 8.51331 15.7985 8.48699L15.74 8.42099L15.7449 8.33285C15.7556 8.12732 15.7688 7.91218 15.7829 7.68995L15.7829 7.68868Z" fill="#030303"/>
</svg>
